PathFileType	4	(X/Y/Z)	jw_ngait_og1_rotated.trc
DataRate	CameraRate	NumFrames	NumMarkers	Units	OrigDataRate	OrigDataStartFrame	OrigNumFrames
120.000000	120.000000	9	56	mm	120.000000	287	327
Frame#	Times	Sternum			Neck			RShoulder			LShoulder			Xiphoid			Thoracic			RAsis			LAsis			RPsis			LPsis			Lumbar			RElbow			RWrist			RRadius			RUlna			LElbow			LWrist			LUlna			LRadius			LThighSuperior			LThighInferior			LThighLateral			LPatella			LShankSuperior			LShankInferior			LShankLateral			RThighSuperior			RThighInferior			RThighLateral			RPatella			RShankSuperior			RShankInferior			RShankLateral			RHeel			RToe			RMidfootMedial			RMidfootLateral			RHindfoot			RMidfootSuperior			RToeMedial			RToeLateral			LHeel			LToe			LMidfootMedial			LMidfootLateral			LHindfoot			LMidfootSuperior			LToeMedial			LToeLateral			LShoulderCenter			Oglobal			RShoulderCenter			Sacral			Xglobal			Yglobal			Zglobal			
		X1	Y1	Z1	X2	Y2	Z2	X3	Y3	Z3	X4	Y4	Z4	X5	Y5	Z5	X6	Y6	Z6	X7	Y7	Z7	X8	Y8	Z8	X9	Y9	Z9	X10	Y10	Z10	X11	Y11	Z11	X12	Y12	Z12	X13	Y13	Z13	X14	Y14	Z14	X15	Y15	Z15	X16	Y16	Z16	X17	Y17	Z17	X18	Y18	Z18	X19	Y19	Z19	X20	Y20	Z20	X21	Y21	Z21	X22	Y22	Z22	X23	Y23	Z23	X24	Y24	Z24	X25	Y25	Z25	X26	Y26	Z26	X27	Y27	Z27	X28	Y28	Z28	X29	Y29	Z29	X30	Y30	Z30	X31	Y31	Z31	X32	Y32	Z32	X33	Y33	Z33	X34	Y34	Z34	X35	Y35	Z35	X36	Y36	Z36	X37	Y37	Z37	X38	Y38	Z38	X39	Y39	Z39	X40	Y40	Z40	X41	Y41	Z41	X42	Y42	Z42	X43	Y43	Z43	X44	Y44	Z44	X45	Y45	Z45	X46	Y46	Z46	X47	Y47	Z47	X48	Y48	Z48	X49	Y49	Z49	X50	Y50	Z50	X51	Y51	Z51	X52	Y52	Z52	X53	Y53	Z53	X54	Y54	Z54	X55	Y55	Z55	X56	Y56	Z56	

287	3.3417	-1341.9	1317.5	-156.92	-1208.2	1434.6	-158.83	-1269.9	1380	-335.41	-1262.8	1379.5	28.614	-1332.7	1201.1	-153.28	-1110.2	1249.2	-148.83	-1301.4	974.17	-290.91	-1291.9	960.05	-17.835	-1085.2	963.76	-171.17	-1084.1	960.93	-111.89	-1091.7	1032	-151.52	-1193.4	1057.1	-433.58	-1279.2	805.05	-419.92	-1295.1	812.5	-383.81	-1230.7	803.28	-418.2	-1138.4	1069.6	85.046	-1141.6	795.25	74.541	-1092.6	804.94	68.745	-1159.8	814.7	37.824	-1274.5	790.36	38.836	-1393.3	575.67	-0.97122	-1389.1	691.6	-25.91	-1460.9	533.71	-66.378	-1442.4	446.91	-14.368	-1551.4	209.86	-33.335	-1525.9	339.6	-83.151	-1208.3	787.35	-319.65	-1159.9	554.04	-268.85	-1235.4	632.22	-250.31	-1167.6	480.46	-221.66	-1026.8	400.07	-275.86	-973.85	170.82	-229.44	-1049.7	256.85	-197.11	-857.94	74.651	-184.33	-1146.7	37.265	-249.01	-1074.4	26.329	-177.96	-1039.8	37.09	-286.99	-958.86	30.855	-272	-1033.9	104.61	-217.96	-1112.8	32.362	-197.29	-1097.9	37.018	-285.67	-1550.4	42.239	-73.096	-1788.5	222.33	-55.994	-1726.9	158.29	-119.37	-1720.4	143.48	4.2163	-1647.2	71.697	-11.856	-1649.7	190.72	-56.788	-1760	193.53	-97.424	-1755.5	179.25	-8.8482	-1235.8	1334.6	16.708	0	0	0	-1244.4	1335.9	-335.19	-1084.7	962.35	-141.53	200	0	0	0	0	-200	0	200	0
288	3.35	-1352.3	1316.3	-155.89	-1218.2	1432.8	-157.82	-1280.1	1378.9	-334.53	-1273.1	1378	29.77	-1343.6	1199.9	-152.24	-1121	1247.1	-147.83	-1314	973.05	-290.12	-1303.5	958.33	-16.619	-1097.4	961.85	-170.64	-1096.1	958.74	-111.49	-1103.7	1030	-151.18	-1203.6	1055.7	-432.46	-1290.5	804.05	-419.54	-1307	812.2	-383.98	-1242.2	802.03	-417.35	-1150.6	1067.5	86.134	-1152.3	793.11	75.343	-1103.4	802.97	70.383	-1170	812.54	38.329	-1287.3	789.56	39.174	-1406	575.6	-2.2287	-1401.6	693.97	-26.663	-1473.7	532.52	-65.374	-1453.5	443.87	-14.791	-1558.9	205.2	-35.238	-1536.2	335.87	-83.664	-1219.7	786.27	-318.98	-1169.1	553.33	-268.96	-1245.3	630.72	-250.41	-1176.2	478.78	-222.05	-1033.6	401.31	-275.63	-976.38	172.65	-229.54	-1054.2	257.43	-196.86	-859.29	78.466	-183.94	-1146.8	36.753	-249.38	-1074.9	26.456	-178.1	-1040.1	37.173	-287.05	-959.14	32.392	-271.77	-1035.6	105.19	-218.41	-1113.1	32.188	-197.53	-1098	36.579	-285.92	-1556.3	38.075	-76.972	-1794.9	215.08	-53.544	-1734.4	153.18	-119.34	-1726.2	136.68	3.9285	-1654.9	67.16	-12.891	-1656.7	185.43	-57.275	-1767.6	187.41	-95.906	-1761.2	172.29	-7.4462	-1246.2	1332.8	17.792	0	0	0	-1254.7	1334.4	-334.11	-1096.7	960.3	-141.07	200	0	0	0	0	-200	0	200	0
289	3.3583	-1362.8	1315.1	-154.69	-1228.3	1431.2	-156.59	-1290.4	1377.6	-333.25	-1283.3	1376.6	31.026	-1354.5	1198.7	-150.96	-1131.9	1244.8	-147.17	-1326.8	971.79	-289.03	-1315.2	956.71	-15.309	-1109.9	959.99	-170.07	-1108	956.78	-111.15	-1115.8	1028.1	-150.79	-1213.8	1054.6	-431.32	-1301.9	803.42	-419.16	-1318.9	811.39	-383.76	-1253.5	800.96	-416.49	-1162.7	1065.2	87.318	-1163.4	790.64	76.212	-1114.5	801.12	72.132	-1180.8	810.49	39.336	-1300	788.92	39.689	-1419.3	575.02	-3.3496	-1414.5	696.28	-27.001	-1486.7	531.41	-64.782	-1464.4	440.73	-15.133	-1565.1	199.91	-37.206	-1546.1	331.7	-84.144	-1231.1	785.5	-318.62	-1179	552.52	-269.21	-1256.1	629.48	-250.73	-1185.4	476.98	-222.6	-1041	402.42	-275.64	-979.25	174.89	-229.98	-1059.2	258.07	-197.14	-861	82.635	-183.53	-1146.8	36.165	-249.72	-1075.7	26.802	-178.31	-1040.5	37.393	-287.18	-959.58	34.144	-271.52	-1037.5	105.94	-218.97	-1113.3	32.006	-197.72	-1098.1	36.176	-286.18	-1560.2	33.129	-81.137	-1800.4	206.84	-50.9	-1740.7	146.24	-118.45	-1729.6	128.56	4.429	-1658.5	60.53	-14.174	-1662.2	179.09	-57.69	-1773.9	180.01	-93.957	-1765.6	163.92	-5.8413	-1256.6	1331.2	18.986	0	0	0	-1265.2	1332.9	-332.92	-1108.9	958.38	-140.61	200	0	0	0	0	-200	0	200	0
290	3.3667	-1373.5	1314.3	-153.28	-1238.2	1429.7	-155.32	-1300.8	1376.4	-331.87	-1293.3	1375.2	32.417	-1365.8	1198	-149.52	-1142.8	1242.8	-146.43	-1339.9	971.09	-287.38	-1327.2	955.35	-13.831	-1122.3	958.09	-169.79	-1120.3	954.72	-110.93	-1128	1026.2	-149.93	-1224.4	1053.6	-430.24	-1313.4	802.74	-418.57	-1330.6	810.94	-383.4	-1265.2	800.08	-415.49	-1175	1063.1	88.626	-1175.2	788.68	77.444	-1126.1	799.4	74.179	-1192	808.39	40.382	-1312.7	788.04	40.303	-1432.7	574.15	-4.5622	-1427.5	698.26	-27.464	-1499.6	530.1	-64.151	-1475.2	436.98	-15.389	-1569.9	194.11	-39.379	-1555.3	326.96	-84.58	-1242.6	784.78	-318.23	-1189.6	551.9	-269.53	-1267.4	628.71	-251.11	-1195.5	475.18	-223.43	-1049	403.56	-275.83	-982.67	177.36	-230.04	-1064.5	258.91	-197.49	-862.81	87.263	-183.07	-1147.1	35.736	-249.93	-1076.3	27.002	-178.41	-1040.9	37.765	-287.19	-960.08	36.25	-271.25	-1039.6	106.7	-219.31	-1113.6	31.912	-197.89	-1098.2	36.051	-286.39	-1561.1	28.998	-85.197	-1804.9	197.5	-48.099	-1744.5	138.52	-118.69	-1731.8	118.94	3.7397	-1659.6	53.591	-16.798	-1666.2	172.11	-58.13	-1778.9	171.6	-92.187	-1768.4	154.47	-4.4355	-1267	1329.7	20.277	0	0	0	-1276	1331.6	-331.62	-1121.3	956.4	-140.36	200	0	0	0	0	-200	0	200	0
291	3.375	-1384	1313.4	-151.71	-1248.1	1428.1	-153.84	-1311	1375.5	-330.41	-1302.9	1374.2	34.019	-1377	1197.1	-147.8	-1153.9	1240.4	-145.36	-1353.1	969.94	-286.1	-1339.1	953.9	-12.245	-1135	956.27	-169.35	-1132.6	952.6	-110.73	-1140.4	1024.2	-149.36	-1234.7	1052.7	-428.9	-1324.8	802.24	-417.93	-1342.1	810.22	-382.8	-1276.6	799.18	-414.59	-1187.2	1061.2	90.113	-1187.3	786.75	78.838	-1138.1	797.65	76.306	-1203.4	806.46	41.64	-1325.2	786.54	41.088	-1445.3	572.72	-6.3811	-1440.4	699.12	-28.08	-1511.8	527.75	-63.309	-1485.5	433.23	-15.597	-1573.7	187.99	-41.45	-1563.8	321.87	-85.067	-1254.8	784.13	-317.43	-1200.6	551.41	-270.16	-1278.7	627.05	-251.1	-1205.9	472.89	-224.54	-1057.5	404.72	-276.09	-986.4	179.93	-230.12	-1069.2	258.74	-197.73	-864.91	92.319	-182.58	-1147.1	34.942	-249.81	-1077.1	27.497	-178.48	-1041.4	38.089	-287.17	-960.74	38.408	-270.91	-1041.9	107.61	-219.89	-1113.7	31.725	-198.06	-1098.2	35.753	-286.56	-1562.5	27.109	-86.188	-1810.3	188.13	-48.276	-1750.8	128.59	-117.83	-1734.6	112.21	4.6679	-1658.3	48.073	-17.272	-1672.2	166.05	-59.865	-1783.9	162.07	-92.21	-1772.5	146.59	-4.3615	-1277.1	1328.2	21.669	0	0	0	-1286.7	1330.3	-330.21	-1133.8	954.43	-140.04	200	0	0	0	0	-200	0	200	0
292	3.3833	-1394.6	1312.8	-149.85	-1257.9	1426.6	-152.23	-1321.6	1374.6	-328.78	-1312.4	1373.1	35.731	-1388.3	1196.6	-145.98	-1165.1	1238.2	-144.33	-1366.6	969.01	-284.75	-1351.3	952.33	-10.817	-1147.8	954.26	-169.13	-1145.1	950.39	-110.6	-1152.9	1022.2	-148.91	-1245.3	1051.9	-427.7	-1336.2	801.53	-417.33	-1353.7	809.7	-382.44	-1287.9	798.52	-413.79	-1199.3	1059.2	91.438	-1199.8	784.84	80.027	-1150.4	795.91	78.614	-1215.3	804.79	42.02	-1337.9	784.94	41.533	-1458.5	571.77	-7.8261	-1453.5	699.15	-28.686	-1523.7	524.47	-62.049	-1495	429.37	-15.622	-1578.7	183.38	-43.237	-1572.9	317.48	-85.392	-1267.5	783.11	-316.97	-1212.3	549.95	-270.57	-1291	625.91	-251.52	-1217.1	470.39	-226.2	-1066.8	405.54	-276.51	-990.46	182.56	-230.44	-1074.8	259.25	-198.17	-867.43	97.498	-182.26	-1147.3	34.494	-249.56	-1078.1	27.85	-178.76	-1042	38.397	-287.34	-961.29	40.691	-270.6	-1044	108.4	-220.52	-1114	31.643	-198.27	-1098.3	35.452	-286.8	-1564.4	26.139	-86.949	-1818.5	179.4	-48.648	-1756.5	120.47	-117.85	-1738	107.35	4.7016	-1657.7	43.683	-17.948	-1678.3	161.71	-61.951	-1790.5	153.43	-92.763	-1777.4	139.45	-4.7975	-1287.1	1326.9	23.182	0	0	0	-1297.8	1329.1	-328.66	-1146.5	952.32	-139.86	200	0	0	0	0	-200	0	200	0
293	3.3917	-1405.1	1312.2	-147.73	-1267.7	1425.2	-150.52	-1332.4	1373.5	-326.95	-1321.7	1372	37.91	-1399.6	1196	-143.9	-1176.3	1236	-143.26	-1380	968.44	-283.1	-1363.3	950.82	-9.6543	-1160.6	952.53	-168.82	-1157.6	948.44	-110.3	-1165.5	1020.4	-148.47	-1255.8	1051	-426.24	-1347.7	800.99	-416.71	-1364.8	808.4	-381.25	-1299.5	797.9	-412.87	-1211.3	1057.3	92.907	-1212.6	783.03	81.762	-1163.4	794	80.918	-1228	803.1	44.226	-1351.2	783.26	41.171	-1471.7	570.58	-9.3076	-1466.8	698.49	-29.315	-1535.1	520.74	-60.598	-1504.5	426.01	-15.59	-1586.6	180.66	-44.826	-1582.6	314.84	-85.448	-1280.4	782.22	-316.25	-1225	548.89	-271.42	-1303.6	624.6	-251.77	-1229.3	468.03	-228.21	-1076.7	406.46	-276.84	-994.87	185.41	-230.84	-1081.5	259.94	-199.06	-870.21	103.38	-181.82	-1147.5	34.467	-250.21	-1079	28.26	-179.12	-1042.5	38.865	-287.55	-961.97	43.421	-270.3	-1046.6	109.32	-221.31	-1114.2	31.517	-198.45	-1098.3	35.223	-286.97	-1566.7	26.767	-87.251	-1826.1	171.12	-50.409	-1762.3	112.91	-120.14	-1744.1	101.62	2.6395	-1661.9	41.423	-18.502	-1686	157.59	-64.176	-1796.7	144.52	-94.146	-1782.8	132.04	-5.615	-1296.8	1325.6	24.869	0	0	0	-1308.9	1327.9	-326.93	-1159.1	950.48	-139.56	200	0	0	0	0	-200	0	200	0
294	3.4	-1415.7	1311.9	-145.55	-1277.6	1424.1	-148.41	-1343.1	1373	-325.07	-1331	1371.4	39.65	-1411	1195.7	-141.69	-1187.3	1234.7	-142.16	-1393.7	968.19	-281.13	-1375	949.68	-8.6188	-1173.1	950.92	-168.6	-1169.8	946.55	-110.16	-1177.9	1018.7	-148.35	-1266.5	1050.4	-424.75	-1358.9	800.44	-415.82	-1377.3	809.09	-381.58	-1311	797.28	-411.84	-1223.2	1055.4	94.45	-1226	781.16	83.539	-1176.6	792.13	83.268	-1240.9	801.62	46.199	-1364.3	781.51	38.895	-1484.4	569.01	-10.762	-1480.3	697.23	-29.625	-1545.9	518.05	-59.71	-1514.2	423.73	-15.984	-1595.7	178.05	-46.267	-1592.6	313.65	-85.519	-1294.1	781.28	-315.42	-1238.1	547.67	-271.98	-1317.2	623.55	-252.41	-1242	465.73	-229.89	-1086.9	407.6	-277.97	-999.78	188.53	-231.21	-1088.4	260.91	-199.76	-873.45	109.89	-181.3	-1147.6	33.751	-250.77	-1080.1	29.005	-179.26	-1043.1	39.592	-287.54	-963.13	46.717	-269.68	-1049.6	110.53	-221.99	-1114.4	31.457	-198.55	-1098.5	35.06	-287.01	-1569.5	29.113	-87.403	-1834.5	157.49	-52.932	-1769.5	103.93	-121.74	-1751.3	94.237	1.1852	-1661.8	36.918	-21.187	-1695.6	152.61	-65.673	-1805.2	133.15	-95.836	-1791	122.17	-7.6798	-1306.7	1324.6	26.642	0	0	0	-1320.1	1327	-325.11	-1171.5	948.73	-139.38	200	0	0	0	0	-200	0	200	0
295	3.4083	-1426.4	1311.8	-143.03	-1287.7	1423.2	-146.29	-1353.6	1372.7	-323.22	-1340.3	1370.6	41.594	-1422.3	1195.4	-139.29	-1198.4	1233.5	-141.35	-1407.1	967.64	-279.09	-1386.4	948.68	-7.3781	-1186.1	949.51	-168.41	-1182.4	945.12	-109.78	-1190.1	1017.4	-148.24	-1277.7	1049.8	-423.24	-1370.5	800.03	-415.07	-1388.6	808.28	-380.41	-1322.5	796.64	-411.04	-1234.8	1053.6	95.864	-1239.5	779.41	85.394	-1190	790.29	85.448	-1254	799.92	47.966	-1377.2	781.04	37.078	-1495.6	567.1	-11.361	-1493.7	695.31	-29.685	-1557.2	516.8	-60.087	-1524.5	422.57	-15.948	-1605.2	177.29	-46.962	-1602.3	312.42	-86.338	-1307.9	780.49	-314.88	-1252.4	546.29	-272.77	-1331.3	622.43	-253	-1254.8	463.2	-230.78	-1098.3	408.66	-278.97	-1005.6	191.99	-231.65	-1096.2	262.14	-200.57	-876.96	117.26	-180.63	-1147.5	33.238	-250.91	-1080.9	29.927	-179.69	-1043.3	40.604	-287.72	-964.29	50.339	-269.4	-1053	111.94	-223.04	-1114.6	31.339	-198.67	-1098.5	34.809	-287.2	-1572.5	31.645	-87.446	-1845.5	142.24	-55.714	-1776.4	93.716	-123.81	-1758.7	85.756	-0.69281	-1666.1	32.807	-20.897	-1705.4	146.51	-67.511	-1814.3	119.76	-98.409	-1799.8	110.33	-10.437	-1316.7	1323.7	28.81	0	0	0	-1331.3	1326.5	-322.89	-1184.2	947.32	-139.1	200	0	0	0	0	-200	0	200	0
